<?xml version="1.0" standalone="no"?>
<!DOCTYPE svg PUBLIC "-//W3C//DTD SVG 20010904//EN"
 "http://www.w3.org/TR/2001/REC-SVG-20010904/DTD/svg10.dtd">
<svg version="1.0" xmlns="http://www.w3.org/2000/svg"
 width="3334.000000pt" height="5001.000000pt" viewBox="0 0 3334.000000 5001.000000"
 preserveAspectRatio="xMidYMid meet">

<g transform="translate(0.000000,5001.000000) scale(0.100000,-0.100000)"
fill="#000000" stroke="none">
<path d="M15350 43529 c-563 -27 -1341 -147 -1567 -241 -199 -82 -360 -241
-443 -436 -63 -149 -60 -54 -60 -1853 l0 -1639 305 0 305 0 -2 -301 -3 -301
-165 -64 c-870 -341 -1622 -963 -2122 -1754 -376 -595 -593 -1243 -658 -1960
-7 -79 -10 -4133 -10 -12805 0 -11240 2 -12705 15 -12820 64 -554 258 -1042
594 -1493 128 -172 411 -455 583 -583 405 -302 828 -485 1313 -569 143 -25
1311 -165 1540 -185 511 -45 697 -50 1705 -50 822 0 1016 3 1240 18 406 26
518 36 735 62 110 14 429 52 708 85 593 71 718 94 972 176 433 141 825 379
1154 699 528 514 836 1151 911 1884 14 147 14 25399 -1 25578 -12 153 -51 417
-79 545 -71 317 -177 645 -260 804 -17 31 -30 62 -30 70 0 19 -83 189 -164
334 -491 886 -1294 1588 -2246 1964 l-165 65 -3 301 -2 300 305 0 305 0 0
1643 c0 1613 0 1645 -20 1723 -38 149 -95 256 -193 360 -118 127 -258 206
-439 248 -448 106 -932 171 -1443 196 -240 11 -2379 11 -2615 -1z m2970 -88
c52 -6 140 -15 195 -20 117 -11 216 -25 300 -41 33 -7 83 -16 110 -20 206 -34
278 -48 420 -82 22 -5 58 -13 80 -17 123 -26 250 -97 350 -196 66 -65 90 -98
131 -180 91 -180 84 -23 84 -1838 l0 -1604 -3312 -5 c-1822 -3 -3316 -3 -3320
-1 -5 2 -8 733 -8 1623 0 1729 -2 1640 45 1745 65 147 82 172 170 260 115 115
198 156 430 214 44 11 107 25 140 31 33 6 78 16 100 20 71 16 99 21 170 30 39
6 95 14 125 19 166 28 202 33 280 42 47 5 147 13 223 17 76 5 140 12 144 16
12 11 3039 -1 3143 -13z m1050 -4376 l0 -295 -2700 0 -2700 0 0 295 0 295
2700 0 2700 0 0 -295z m91 -381 c8 -6 43 -21 79 -33 36 -12 89 -33 118 -47 29
-13 55 -24 58 -24 6 0 61 -26 209 -96 77 -36 232 -119 292 -154 47 -29 335
-222 384 -258 102 -76 196 -148 209 -162 8 -8 44 -40 80 -70 149 -126 392
-379 496 -515 20 -28 41 -51 46 -53 4 -2 8 -9 8 -16 0 -7 14 -25 30 -41 17
-16 30 -33 30 -37 0 -5 23 -38 50 -73 28 -35 50 -68 50 -73 0 -5 9 -17 20 -27
11 -10 20 -23 20 -30 0 -7 9 -20 20 -30 11 -10 20 -24 20 -30 0 -7 6 -18 14
-24 8 -7 29 -40 47 -74 17 -34 36 -68 42 -76 14 -16 172 -323 231 -446 42 -87
102 -253 125 -345 6 -25 20 -76 31 -115 40 -138 71 -261 80 -315 6 -30 14 -75
20 -100 10 -42 17 -90 41 -265 30 -225 31 -500 35 -12500 2 -6671 2 -12137 -1
-12144 -3 -8 -7 -263 -9 -565 -3 -557 -7 -626 -46 -811 -5 -27 -13 -63 -16
-80 -80 -396 -290 -840 -564 -1195 -93 -121 -356 -384 -480 -482 -392 -308
-834 -508 -1320 -596 -58 -11 -161 -25 -300 -41 -151 -18 -263 -31 -340 -41
-41 -5 -118 -14 -170 -20 -52 -6 -129 -15 -170 -20 -41 -5 -118 -14 -170 -20
-52 -6 -126 -15 -165 -20 -125 -16 -277 -29 -440 -40 -88 -5 -241 -15 -340
-22 -251 -18 -2051 -18 -2290 0 -93 6 -246 17 -340 22 -166 10 -275 20 -442
40 -136 16 -253 30 -343 41 -47 5 -119 14 -160 19 -41 5 -118 14 -170 20 -52
6 -129 15 -170 20 -41 5 -115 14 -165 20 -310 36 -430 59 -640 123 -350 105
-665 269 -975 507 -120 93 -384 355 -483 481 -268 340 -478 775 -563 1168 -67
306 -68 321 -70 926 -2 303 -6 557 -9 565 -11 29 3 24267 14 24440 6 91 15
194 20 230 5 36 14 99 20 140 15 110 26 162 61 290 17 63 35 135 40 160 11 58
97 312 152 448 47 118 263 558 278 567 6 3 19 25 30 49 10 23 26 49 35 56 8 7
15 18 15 25 0 6 9 20 20 30 11 10 20 23 20 30 0 7 9 20 20 30 11 10 20 22 20
27 0 6 9 22 21 36 11 15 48 65 82 112 101 139 252 315 402 465 119 119 165
162 281 260 7 6 38 30 69 55 32 25 74 59 94 76 39 34 308 216 406 276 75 46
233 131 300 162 28 13 93 44 145 70 52 25 98 46 102 46 4 0 31 11 60 24 29 13
78 31 108 41 30 10 60 21 65 25 6 4 19 10 30 13 11 3 1262 4 2781 3 1961 -1
2765 -4 2775 -12z"/>
</g>
</svg>
